<svg data-v-0dd9719b="" version="1.0" xmlns="http://www.w3.org/2000/svg" xmlns:xlink="http://www.w3.org/1999/xlink" width="100%" height="100%" viewBox="0 0 340.000000 250.000000" preserveAspectRatio="xMidYMid meet" color-interpolation-filters="sRGB" style="margin: auto;"> <rect data-v-0dd9719b="" x="0" y="0" width="100%" height="100%" fill="#ffffff" fill-opacity="1" class="background"></rect> <rect data-v-0dd9719b="" x="0" y="0" width="100%" height="100%" fill="url(#watermark)" fill-opacity="1" class="watermarklayer"></rect> <g data-v-0dd9719b="" fill="#383c93" class="endsvg" transform="translate(51.33000183105469,95.41874885559082)"><g class="tp-name" transform="translate(0,0)"><g><rect data-gra="graph-name-bg" stroke-width="2" class="i-icon-bg" x="0" y="0" width="237.33999633789062" height="44.21000289916992" fill-opacity="0"></rect> <!----> <!----> </g> <g transform="translate(0,0)"><g data-gra="path-name-bg"><g><rect data-gra="graph-name-bg" stroke-width="2" class="i-icon-bg" x="0" y="0" width="107.01000213623047" height="44.21000289916992" fill-opacity="0"></rect> <!----> <!----> </g> <g transform="translate(5,5)"><g data-gra="path-name"><g transform="scale(1)"><path d="M24.88 5.62L24.88 5.62L4.01 5.62L4.01-24.00L3.03-24.00L3.03-27.86L7.82-27.86L7.82 1.81L24.88 1.81L24.88 5.62ZM38.12 5.47L38.12 5.47L34.26 5.47L34.26-27.91L38.12-27.91L38.12 5.47ZM51.76 5.42L51.76 5.42L47.90 5.42L47.90-26.29L51.76-26.29L51.76 5.42ZM71.01 5.38L71.01 5.38L67.45 5.38L51.51-24.39L46.82-24.39L46.82-28.20L53.81-28.20L67.15-3.32L67.15-28.59L71.01-28.59L71.01 5.38ZM100.04 5.42L100.04 5.42L76.63 5.42L76.63 1.95L95.25-24.29L77.51-24.29L77.51-28.10L99.51-28.10L99.51-23.65L81.57 1.56L100.04 1.56L100.04 5.42Z" transform="translate(-3.0301742456438583, 28.591160220994475)"></path></g></g></g></g> <g data-gra="path-name-1-bg" transform="translate(107.00999450683594,0)" mask="url(#92343ba9-a145-40b0-bd5a-1a5e00c3035b)"><g><rect data-gra="graph-name-bg" stroke-width="2" class="i-icon-bg" x="0" y="0" width="130.3300018310547" height="44.21000289916992" fill="#383c93"></rect> <!----> <!----> </g> <g transform="translate(5,5)"><g data-gra="path-name-1" fill="#383c93"><g transform="scale(1)"><path d="M8.36 5.47L8.36 5.47L4.55 5.47L4.55-24.05L3.08-24.05L3.08-27.91L8.36-27.91L8.36 5.47ZM27.76 5.47L27.76 5.47L23.95 5.47L23.95-27.91L27.76-27.91L27.76 5.47ZM25.85-9.97L25.85-9.97L4.89-9.97L4.89-13.83L25.85-13.83L25.85-9.97ZM47.07 5.03L47.07 5.03Q44.28 5.03 41.81 3.74Q39.34 2.44 37.44-0.05L37.44-0.05Q35.63-2.39 34.68-5.35Q33.72-8.31 33.72-11.58L33.72-11.58Q33.72-14.86 34.68-17.84Q35.63-20.82 37.44-23.17L37.44-23.17Q39.34-25.66 41.81-26.95Q44.28-28.25 47.07-28.25L47.07-28.25Q49.80-28.25 52.27-26.95Q54.74-25.66 56.64-23.17L56.64-23.17Q58.45-20.82 59.41-17.84Q60.36-14.86 60.36-11.58L60.36-11.58Q60.36-8.31 59.41-5.35Q58.45-2.39 56.64-0.05L56.64-0.05Q54.74 2.44 52.27 3.74Q49.80 5.03 47.07 5.03ZM47.07-24.39L47.07-24.39Q45.11-24.39 43.38-23.39Q41.64-22.38 40.35-20.65Q39.05-18.91 38.29-16.57Q37.54-14.22 37.54-11.58L37.54-11.58Q37.54-8.94 38.29-6.62Q39.05-4.30 40.35-2.57Q41.64-0.83 43.38 0.17Q45.11 1.17 47.07 1.17L47.07 1.17Q49.02 1.17 50.76 0.17Q52.49-0.83 53.76-2.57Q55.03-4.30 55.79-6.62Q56.55-8.94 56.55-11.58L56.55-11.58Q56.55-14.22 55.79-16.57Q55.03-18.91 53.76-20.65Q52.49-22.38 50.76-23.39Q49.02-24.39 47.07-24.39ZM71.89 5.42L71.89 5.42L68.03 5.42L68.03-26.29L71.89-26.29L71.89 5.42ZM91.15 5.38L91.15 5.38L87.58 5.38L71.65-24.39L66.96-24.39L66.96-28.20L73.95-28.20L87.29-3.32L87.29-28.59L91.15-28.59L91.15 5.38ZM111.73 4.89L111.73 4.89Q108.79 4.89 106.20 3.59Q103.61 2.30 101.68 0.02Q99.75-2.25 98.63-5.25Q97.50-8.26 97.50-11.73L97.50-11.73Q97.50-15.15 98.63-18.18Q99.75-21.21 101.68-23.46Q103.61-25.71 106.20-27.03Q108.79-28.35 111.73-28.35L111.73-28.35Q115.15-28.35 118.10-26.64Q121.06-24.93 123.11-21.75L123.11-21.75L119.89-19.65Q118.37-21.99 116.27-23.24Q114.17-24.49 111.73-24.49L111.73-24.49Q109.58-24.49 107.69-23.48Q105.81-22.48 104.39-20.75Q102.98-19.01 102.17-16.69Q101.36-14.37 101.36-11.73L101.36-11.73Q101.36-9.09 102.17-6.77Q102.98-4.45 104.39-2.69Q105.81-0.93 107.69 0.07Q109.58 1.08 111.73 1.08L111.73 1.08Q114.02 1.08 116.05-0.07Q118.08-1.22 119.59-3.32L119.59-3.32L119.59-9.82L108.84-9.82L108.84-13.64L123.41-13.64L123.41-2.20L123.11-1.71Q121.06 1.47 118.10 3.18Q115.15 4.89 111.73 4.89Z" transform="translate(-3.079048023799405, 28.591160220994475)"></path></g></g></g></g></g></g> <!----> <!----> <!----> <!----> <!----> <g data-gra="path-slogan" fill-rule="" class="tp-slogan" fill="#383c93" transform="translate(76.54999923706055,50.21000289916992)"><!----> <!----> <g transform="scale(1, 1)"><g transform="scale(1)"><path d="M3.42-4.31L2.06-3.05L2.06 0L0.89 0L0.89-8.58L2.06-8.58L2.06-4.41L6.23-8.58L7.88-8.58L4.27-5.11L7.97 0L6.42 0L3.42-4.31ZM15.66-4.27L15.66-4.27Q15.47-7.64 12.66-7.83L12.66-7.83Q9.80-7.69 9.66-4.27L9.66-4.27Q9.80-0.94 12.66-0.80L12.66-0.80Q15.47-0.98 15.66-4.27ZM16.83-4.27L16.83-4.27Q16.55 0 12.66 0.14L12.66 0.14Q8.72 0 8.44-4.27L8.44-4.27Q8.67-8.72 12.66-8.81L12.66-8.81Q16.55-8.67 16.83-4.27ZM19.59-8.58L23.91-1.64L23.91-8.58L25.03-8.58L25.03 0L23.72 0L19.36-6.94L19.31-6.94L19.31 0L18.19 0L18.19-8.58L19.59-8.58ZM33.23-3.61L30.61-3.61L30.61-4.59L34.36-4.59L34.36 0L33.61 0L33.33-1.08Q32.34 0.09 30.52 0.14L30.52 0.14Q28.78 0.14 27.84-0.75L27.84-0.75Q26.44-2.06 26.48-4.36L26.48-4.36Q26.81-8.63 30.56-8.81L30.56-8.81Q33.75-8.63 34.22-6L34.22-6L33.09-6Q32.63-7.78 30.52-7.83L30.52-7.83Q27.84-7.64 27.70-4.31L27.70-4.31Q27.70-0.75 30.56-0.75L30.56-0.75Q31.59-0.75 32.34-1.31L32.34-1.31Q33.28-2.06 33.23-3.61L33.23-3.61ZM39.47-8.58L40.64-8.58L40.64-1.03L45-1.03L45 0L39.47 0L39.47-8.58ZM46.31-8.58L47.48-8.58L47.48 0L46.31 0L46.31-8.58ZM57.70-8.58L57.70 0L56.58 0L56.58-5.06Q56.58-5.77 56.58-7.22L56.58-7.22L54.14 0L52.97 0L50.58-7.22L50.53-7.22Q50.53-6.70 50.58-5.67L50.58-5.67Q50.58-5.16 50.58-5.06L50.58-5.06L50.58 0L49.41 0L49.41-8.58L51.09-8.58L53.58-1.31L56.02-8.58L57.70-8.58ZM59.58-8.58L60.75-8.58L60.75 0L59.58 0L59.58-8.58ZM64.92-7.59L62.02-7.59L62.02-8.58L68.95-8.58L68.95-7.59L66.05-7.59L66.05 0L64.92 0L64.92-7.59ZM71.30-1.03L76.45-1.03L76.45 0L70.13 0L70.13-8.58L76.36-8.58L76.36-7.59L71.30-7.59L71.30-4.92L75.98-4.92L75.98-3.89L71.30-3.89L71.30-1.03ZM81.47 0L78 0L78-8.58L81.52-8.58Q84.98-8.39 85.13-4.41L85.13-4.41Q84.94-0.09 81.47 0L81.47 0ZM81.33-7.64L79.17-7.64L79.17-0.98L81.42-0.98Q83.86-1.13 83.95-4.31L83.95-4.31Q83.91-7.55 81.33-7.64L81.33-7.64Z" transform="translate(-0.890625, 8.8125)"></path></g></g></g></g><mask id="92343ba9-a145-40b0-bd5a-1a5e00c3035b"><g fill="white"><rect data-gra="graph-name-bg" stroke-width="2" class="i-icon-bg" x="0" y="0" width="130.3300018310547" height="44.21000289916992"></rect>   </g> <g transform="translate(5,5)" fill="black"><g data-gra="path-name-1"><g transform="scale(1)"><path d="M8.36 5.47L8.36 5.47L4.55 5.47L4.55-24.05L3.08-24.05L3.08-27.91L8.36-27.91L8.36 5.47ZM27.76 5.47L27.76 5.47L23.95 5.47L23.95-27.91L27.76-27.91L27.76 5.47ZM25.85-9.97L25.85-9.97L4.89-9.97L4.89-13.83L25.85-13.83L25.85-9.97ZM47.07 5.03L47.07 5.03Q44.28 5.03 41.81 3.74Q39.34 2.44 37.44-0.05L37.44-0.05Q35.63-2.39 34.68-5.35Q33.72-8.31 33.72-11.58L33.72-11.58Q33.72-14.86 34.68-17.84Q35.63-20.82 37.44-23.17L37.44-23.17Q39.34-25.66 41.81-26.95Q44.28-28.25 47.07-28.25L47.07-28.25Q49.80-28.25 52.27-26.95Q54.74-25.66 56.64-23.17L56.64-23.17Q58.45-20.82 59.41-17.84Q60.36-14.86 60.36-11.58L60.36-11.58Q60.36-8.31 59.41-5.35Q58.45-2.39 56.64-0.05L56.64-0.05Q54.74 2.44 52.27 3.74Q49.80 5.03 47.07 5.03ZM47.07-24.39L47.07-24.39Q45.11-24.39 43.38-23.39Q41.64-22.38 40.35-20.65Q39.05-18.91 38.29-16.57Q37.54-14.22 37.54-11.58L37.54-11.58Q37.54-8.94 38.29-6.62Q39.05-4.30 40.35-2.57Q41.64-0.83 43.38 0.17Q45.11 1.17 47.07 1.17L47.07 1.17Q49.02 1.17 50.76 0.17Q52.49-0.83 53.76-2.57Q55.03-4.30 55.79-6.62Q56.55-8.94 56.55-11.58L56.55-11.58Q56.55-14.22 55.79-16.57Q55.03-18.91 53.76-20.65Q52.49-22.38 50.76-23.39Q49.02-24.39 47.07-24.39ZM71.89 5.42L71.89 5.42L68.03 5.42L68.03-26.29L71.89-26.29L71.89 5.42ZM91.15 5.38L91.15 5.38L87.58 5.38L71.65-24.39L66.96-24.39L66.96-28.20L73.95-28.20L87.29-3.32L87.29-28.59L91.15-28.59L91.15 5.38ZM111.73 4.89L111.73 4.89Q108.79 4.89 106.20 3.59Q103.61 2.30 101.68 0.02Q99.75-2.25 98.63-5.25Q97.50-8.26 97.50-11.73L97.50-11.73Q97.50-15.15 98.63-18.18Q99.75-21.21 101.68-23.46Q103.61-25.71 106.20-27.03Q108.79-28.35 111.73-28.35L111.73-28.35Q115.15-28.35 118.10-26.64Q121.06-24.93 123.11-21.75L123.11-21.75L119.89-19.65Q118.37-21.99 116.27-23.24Q114.17-24.49 111.73-24.49L111.73-24.49Q109.58-24.49 107.69-23.48Q105.81-22.48 104.39-20.75Q102.98-19.01 102.17-16.69Q101.36-14.37 101.36-11.73L101.36-11.73Q101.36-9.09 102.17-6.77Q102.98-4.45 104.39-2.69Q105.81-0.93 107.69 0.07Q109.58 1.08 111.73 1.08L111.73 1.08Q114.02 1.08 116.05-0.07Q118.08-1.22 119.59-3.32L119.59-3.32L119.59-9.82L108.84-9.82L108.84-13.64L123.41-13.64L123.41-2.20L123.11-1.71Q121.06 1.47 118.10 3.18Q115.15 4.89 111.73 4.89Z" transform="translate(-3.079048023799405, 28.591160220994475)"></path></g></g></g></mask><defs v-gra="od"></defs></svg>